# File created by Blade
# Date/Time:  Tue Sep 30 19:07:45 2014
#---------------------------------------------------------
:version 1.10
:name HOM
:units
  mass 1.0
  length 1.000000
  angle deg
:documentation
     Acclaim Skeleton File
:root
   axis xyz
   order TX TY TZ RX RY RZ
   position 0.000000 0.000000 0.000000
   orientation 0 0 0
:bonedata
   begin
      id 1
      name Spine_dum
      direction 0.000000 1.000000 0.000000
      length 7.508948
      axis 0.0 0.0 0.0 xyz
   end
   begin
      id 2
      name LeftUpLeg_dum
      direction 1.000000 0.000000 0.000000
      length 3.000560
      axis 0.0 0.0 0.0 xyz
   end
   begin
      id 3
      name RightUpLeg_dum
      direction -1.000000 0.000000 0.000000
      length 3.000560
      axis 0.0 0.0 0.0 xyz
   end
   begin
      id 4
      name Spine
      direction 0.000000 1.000000 0.000000
      length 0.000000
      axis 0.0 0.0 0.0 xyz
      dof rx ry rz
   end
   begin
      id 5
      name Spine_dum1
      direction 0.000000 1.000000 0.000000
      length 13.861154
      axis 0.0 0.0 0.0 xyz
   end
   begin
      id 6
      name Spine_dum2
      direction 0.000000 1.000000 0.000000
      length 8.204781
      axis 0.0 0.0 0.0 xyz
   end
   begin
      id 7
      name Spine_dum3
      direction 0.000000 1.000000 0.000000
      length 8.204781
      axis 0.0 0.0 0.0 xyz
   end
   begin
      id 8
      name Head
      direction 0.000000 1.000000 0.000000
      length 4.527550
      axis 0.0 0.0 0.0 xyz
      dof rx ry rz
   end
   begin
      id 9
      name LeftShoulder
      direction 1.000000 0.000000 0.000000
      length 6.635956
      axis 0.0 0.0 -90.0 xyz
      dof rx ry rz
   end
   begin
      id 10
      name LeftArm
      direction 1.000000 0.000000 0.000000
      length 10.274218
      axis 0.0 0.0 -90.0 xyz
      dof rx ry rz
   end
   begin
      id 11
      name LeftForeArm
      direction 1.000000 0.000000 0.000000
      length 8.522147
      axis 0.0 0.0 -90.0 xyz
      dof ry rz rx
   end
   begin
      id 12
      name LeftHand
      direction 0.000000 0.000000 0.000000
      length 0.000000
      axis 0.0 0.0 -90.0 xyz
      dof rx ry rz
   end
   begin
      id 13
      name LeftHand_dum1
      direction 0.000000 0.000000 0.000000
      length 0.000000
      axis 0.0 0.0 -90.0 xyz
   end
   begin
      id 14
      name LeftHand_dum2
      direction 1.000000 0.000000 0.000000
      length 3.937000
      axis 0.0 0.0 -90.0 xyz
   end
   begin
      id 15
      name LeftHandThumb1
      direction 0.000000 0.000000 1.000000
      length 3.937000
      axis 0.0 0.0 -90.0 xyz
      dof rx rz ry
   end
   begin
      id 16
      name RightShoulder
      direction -1.000000 0.000000 0.000000
      length 6.635956
      axis 0.0 0.0 90.0 xyz
      dof rx ry rz
   end
   begin
      id 17
      name RightArm
      direction -1.000000 0.000000 0.000000
      length 10.274218
      axis 0.0 0.0 90.0 xyz
      dof rx ry rz
   end
   begin
      id 18
      name RightForeArm
      direction -1.000000 0.000000 0.000000
      length 8.522147
      axis 0.0 0.0 90.0 xyz
      dof ry rz rx
   end
   begin
      id 19
      name RightHand
      direction 0.000000 0.000000 0.000000
      length 0.000000
      axis 0.0 0.0 90.0 xyz
      dof rx ry rz
   end
   begin
      id 20
      name RightHand_dum1
      direction 0.000000 0.000000 0.000000
      length 0.000000
      axis 0.0 0.0 90.0 xyz
   end
   begin
      id 21
      name RightHand_dum2
      direction -1.000000 0.000000 0.000000
      length 3.937000
      axis 0.0 0.0 90.0 xyz
   end
   begin
      id 22
      name RightHandThumb1
      direction 0.000000 0.000000 1.000000
      length 3.937000
      axis 0.0 0.0 90.0 xyz
      dof rx rz ry
   end
   begin
      id 23
      name LeftUpLeg
      direction 0.000000 -1.000000 0.000000
      length 16.490845
      axis 0.0 0.0 0.0 xyz
      dof rx ry rz
   end
   begin
      id 24
      name LeftLeg
      direction 0.000000 -1.000000 0.000000
      length 14.556576
      axis 0.0 0.0 0.0 xyz
      dof rx ry rz
   end
   begin
      id 25
      name LeftFoot
      direction 0.000000 -0.258819 0.965926
      length 4.831116
      axis 15.0 0.0 0.0 xyz
      dof rx ry rz
   end
   begin
      id 26
      name LeftToeBase
      direction 0.000000 0.000000 1.000000
      length 2.952750
      axis 0.0 0.0 0.0 xyz
      dof rx ry rz
   end
   begin
      id 27
      name RightUpLeg
      direction 0.000000 -1.000000 0.000000
      length 16.490845
      axis 0.0 0.0 0.0 xyz
      dof rx ry rz
   end
   begin
      id 28
      name RightLeg
      direction 0.000000 -1.000000 0.000000
      length 14.556576
      axis 0.0 0.0 0.0 xyz
      dof rx ry rz
   end
   begin
      id 29
      name RightFoot
      direction 0.000000 -0.258819 0.965926
      length 4.831116
      axis 15.0 0.0 0.0 xyz
      dof rx ry rz
   end
   begin
      id 30
      name RightToeBase
      direction 0.000000 0.000000 1.000000
      length 2.952750
      axis 0.0 0.0 0.0 xyz
      dof rx ry rz
   end
:hierarchy
   begin
      root Spine_dum LeftUpLeg_dum RightUpLeg_dum
      Spine_dum Spine
      LeftUpLeg_dum LeftUpLeg
      RightUpLeg_dum RightUpLeg
      Spine Spine_dum1 Spine_dum2 Spine_dum3
      Spine_dum1 Head
      Spine_dum2 LeftShoulder
      Spine_dum3 RightShoulder
      LeftShoulder LeftArm
      LeftArm LeftForeArm
      LeftForeArm LeftHand
      LeftHand LeftHand_dum1 LeftHand_dum2
      LeftHand_dum1 LeftHandThumb1
      RightShoulder RightArm
      RightArm RightForeArm
      RightForeArm RightHand
      RightHand RightHand_dum1 RightHand_dum2
      RightHand_dum1 RightHandThumb1
      LeftUpLeg LeftLeg
      LeftLeg LeftFoot
      LeftFoot LeftToeBase
      RightUpLeg RightLeg
      RightLeg RightFoot
      RightFoot RightToeBase
   end

# File created by Blade
# Date/Time:  Thu Sep 25 19:36:54 2014
# Frame Rate: 120.000 fps
#------------------------------------------------------
:FULLY-SPECIFIED
:DEGREES
127
root -0.445586 32.855141 1.790537 13.852039 2.079261 -3.747560
Spine -8.874666 4.436016 -4.097413
Head -11.294630 -7.109367 15.541966
LeftShoulder -10.538877 19.173998 21.257132
LeftArm 24.523028 -8.313234 -46.693257
LeftForeArm 5.482591 0.000000 14.953874
LeftHand -24.445095 -0.000000 -11.963075
LeftHandThumb1 -26.253704 0.000000 33.147579
RightShoulder -19.060268 11.174003 -30.582854
RightArm -8.371178 0.313962 53.408825
RightForeArm -27.494998 -0.000000 16.416001
RightHand -10.765861 -0.000000 5.047829
RightHandThumb1 -24.326973 -0.000000 -32.862282
LeftUpLeg -11.017565 1.798106 -0.611395
LeftLeg 2.369155 -0.000000 -0.000000
LeftFoot -11.729509 3.561505 -12.989514
LeftToeBase 9.373513 -0.000000 -0.000000
RightUpLeg -15.926866 -5.918409 -1.013325
RightLeg 11.084929 -0.000000 -0.000000
RightFoot -7.141629 -6.597065 5.233115
RightToeBase -2.529447 -0.000000 0.000000
128
root -0.441328 32.858526 1.775361 13.928302 2.014013 -3.831473
Spine -8.840409 4.449882 -4.105474
Head -11.383320 -7.103985 15.559483
LeftShoulder -10.512751 19.004482 21.167493
LeftArm 24.493188 -7.794582 -46.951309
LeftForeArm 5.423361 -0.000000 14.982327
LeftHand -24.531313 -0.000000 -11.754028
LeftHandThumb1 -26.253704 0.000000 33.147579
RightShoulder -19.037029 11.183177 -30.470969
RightArm -8.408794 0.269949 53.818882
RightForeArm -27.339593 -0.000000 16.408863
RightHand -10.876834 0.000000 4.607670
RightHandThumb1 -24.326973 -0.000000 -32.862282
LeftUpLeg -11.150297 1.894849 -0.567326
LeftLeg 2.435897 -0.000000 -0.000000
LeftFoot -11.666567 3.531076 -12.705038
LeftToeBase 9.028495 -0.000000 -0.000000
RightUpLeg -16.070494 -5.858617 -0.955241
RightLeg 11.144953 -0.000000 -0.000000
RightFoot -7.053606 -6.521113 5.295762
RightToeBase -2.609185 -0.000000 0.000000
129
root -0.435556 32.861963 1.764983 13.962396 1.955686 -3.906262
Spine -8.768970 4.473883 -4.115509
Head -11.432335 -7.124577 15.576552
LeftShoulder -10.430066 19.032832 21.090858
LeftArm 24.538872 -7.507842 -47.307823
LeftForeArm 5.502157 -0.000000 15.059731
LeftHand -24.347119 -0.000000 -11.911052
LeftHandThumb1 -26.253704 0.000000 33.147579
RightShoulder -19.058927 11.130088 -30.324008
RightArm -8.345889 0.181117 54.208269
RightForeArm -27.129883 -0.000000 16.391186
RightHand -10.878831 -0.000000 4.424068
RightHandThumb1 -24.326973 -0.000000 -32.862282
LeftUpLeg -11.234790 1.954322 -0.518154
LeftLeg 2.489588 -0.000000 -0.000000
LeftFoot -11.752517 3.552165 -12.816398
LeftToeBase 9.353659 -0.000000 -0.000000
RightUpLeg -16.157409 -5.812686 -0.909193
RightLeg 11.196540 -0.000000 -0.000000
RightFoot -6.983585 -6.441182 5.332055
RightToeBase -2.676813 -0.000000 0.000000
130
root -0.428685 32.865758 1.753396 14.009349 1.894589 -3.961476
Spine -8.713073 4.492302 -4.148868
Head -11.483362 -7.096866 15.587042
LeftShoulder -10.364119 19.100455 21.002428
LeftArm 24.625950 -7.207886 -47.617663
LeftForeArm 5.596352 -0.000000 15.141661
LeftHand -24.350636 -0.000000 -12.109714
LeftHandThumb1 -26.253704 0.000000 33.147579
RightShoulder -19.083534 11.067272 -30.193388
RightArm -8.275957 0.038216 54.647737
RightForeArm -27.116037 0.000000 16.307026
RightHand -10.508549 -0.000000 4.378802
RightHandThumb1 -24.326973 -0.000000 -32.862282
LeftUpLeg -11.339166 2.004669 -0.497267
LeftLeg 2.581976 -0.000000 -0.000000
LeftFoot -11.778417 3.604259 -12.825611
LeftToeBase 9.298986 -0.000000 -0.000000
RightUpLeg -16.265928 -5.779912 -0.883008
RightLeg 11.267859 -0.000000 -0.000000
RightFoot -6.920864 -6.335256 5.386159
RightToeBase -2.717200 -0.000000 0.000000
131
root -0.422924 32.869076 1.742836 14.048110 1.826587 -4.022347
Spine -8.644514 4.524684 -4.173124
Head -11.556198 -7.110075 15.603990
LeftShoulder -10.274622 19.056058 20.929060
LeftArm 24.613673 -6.838971 -47.896853
LeftForeArm 5.647704 -0.000000 15.215593
LeftHand -24.330262 -0.000000 -12.384693
LeftHandThumb1 -26.253704 0.000000 33.147579
RightShoulder -19.110199 11.058585 -30.069111
RightArm -8.268580 0.034838 55.044199
RightForeArm -26.927877 0.000000 16.314463
RightHand -10.557815 -0.000000 4.148479
RightHandThumb1 -24.326973 -0.000000 -32.862282
LeftUpLeg -11.437966 2.075807 -0.464124
LeftLeg 2.677937 -0.000000 -0.000000
LeftFoot -11.717063 3.584989 -12.526367
LeftToeBase 8.987095 -0.000000 -0.000000
RightUpLeg -16.368625 -5.741147 -0.850255
RightLeg 11.339414 -0.000000 -0.000000
RightFoot -6.848167 -6.244505 5.400372
RightToeBase -2.830820 -0.000000 0.000000
132
root -0.416867 32.872472 1.732105 14.084661 1.766904 -4.079452
Spine -8.573723 4.567806 -4.197174
Head -11.613930 -7.129323 15.615970
LeftShoulder -10.176103 19.017093 20.851101
LeftArm 24.634484 -6.477015 -48.166201
LeftForeArm 5.733860 -0.000000 15.227084
LeftHand -24.156108 -0.000000 -12.450834
LeftHandThumb1 -26.253704 0.000000 33.147579
RightShoulder -19.157041 11.026562 -29.969158
RightArm -8.271215 -0.152773 55.500120
RightForeArm -27.024014 -0.000000 16.280032
RightHand -10.355960 -0.000000 3.812730
RightHandThumb1 -24.326973 -0.000000 -32.862282
LeftUpLeg -11.533588 2.150103 -0.440795
LeftLeg 2.755632 -0.000000 -0.000000
LeftFoot -11.811451 3.607284 -12.691918
LeftToeBase 9.300001 -0.000000 -0.000000
RightUpLeg -16.472673 -5.703046 -0.822073
RightLeg 11.424652 -0.000000 -0.000000
RightFoot -6.786206 -6.154523 5.418945
RightToeBase -2.897482 -0.000000 0.000000
133
root -0.410739 32.875658 1.721162 14.123505 1.719870 -4.126863
Spine -8.506855 4.540387 -4.227334
Head -11.654944 -7.108844 15.651254
LeftShoulder -10.126123 19.106790 20.760391
LeftArm 24.728816 -6.175320 -48.437272
LeftForeArm 5.662907 0.000000 15.239806
LeftHand -24.164652 0.000000 -12.370962
LeftHandThumb1 -26.253704 0.000000 33.147579
RightShoulder -19.149303 11.043916 -29.851361
RightArm -8.270447 -0.224546 55.924584
RightForeArm -26.867588 -0.000000 16.331094
RightHand -10.408414 -0.000000 4.086520
RightHandThumb1 -24.326973 -0.000000 -32.862282
LeftUpLeg -11.640798 2.216391 -0.427779
LeftLeg 2.868096 -0.000000 -0.000000
LeftFoot -11.850237 3.623595 -12.720104
LeftToeBase 9.341720 -0.000000 -0.000000
RightUpLeg -16.574046 -5.657693 -0.804757
RightLeg 11.499698 -0.000000 -0.000000
RightFoot -6.717010 -6.098004 5.478172
RightToeBase -3.032039 -0.000000 0.000000
134
root -0.404216 32.878944 1.709035 14.162357 1.670867 -4.165889
Spine -8.436022 4.498817 -4.250437
Head -11.699697 -7.089022 15.645526
LeftShoulder -10.105857 19.052793 20.648586
LeftArm 24.732991 -5.806878 -48.671398
LeftForeArm 5.640293 -0.000000 15.257029
LeftHand -24.198825 -0.000000 -12.370259
LeftHandThumb1 -26.253704 0.000000 33.147579
RightShoulder -19.098144 11.105467 -29.733517
RightArm -8.365460 -0.268640 56.339548
RightForeArm -26.931126 -0.000000 16.416391
RightHand -10.334990 0.000000 3.899049
RightHandThumb1 -24.326973 -0.000000 -32.862282
LeftUpLeg -11.756785 2.292822 -0.415158
LeftLeg 2.983441 -0.000000 -0.000000
LeftFoot -11.832252 3.586110 -12.593718
LeftToeBase 9.203971 -0.000000 -0.000000
RightUpLeg -16.685026 -5.605314 -0.797132
RightLeg 11.585809 -0.000000 -0.000000
RightFoot -6.654598 -6.036198 5.530809
RightToeBase -3.077456 -0.000000 0.000000
135
root -0.398865 32.881263 1.696673 14.194193 1.637104 -4.209726
Spine -8.354370 4.444261 -4.260982
Head -11.721548 -7.048611 15.654714
LeftShoulder -10.058837 19.042770 20.572653
LeftArm 24.742215 -5.484441 -48.968291
LeftForeArm 5.464380 -0.000000 15.284798
LeftHand -24.322794 0.000000 -12.320858
LeftHandThumb1 -26.253704 0.000000 33.147579
RightShoulder -19.045098 11.146253 -29.617538
RightArm -8.412893 -0.317508 56.737223
RightForeArm -26.587227 -0.000000 16.535323
RightHand -10.394519 -0.000000 4.215656
RightHandThumb1 -24.326973 -0.000000 -32.862282
LeftUpLeg -11.866540 2.343619 -0.396476
LeftLeg 3.100905 -0.000000 -0.000000
LeftFoot -11.858732 3.587095 -12.560737
LeftToeBase 9.163398 -0.000000 -0.000000
RightUpLeg -16.788612 -5.581553 -0.772933
RightLeg 11.663894 -0.000000 -0.000000
RightFoot -6.585050 -5.998062 5.541114
RightToeBase -3.136648 -0.000000 0.000000
136
root -0.393320 32.883927 1.684300 14.228117 1.598171 -4.251427
Spine -8.281555 4.387123 -4.284764
Head -11.722418 -7.017226 15.688099
LeftShoulder -10.040542 19.055341 20.501028
LeftArm 24.786564 -5.224479 -49.304978
LeftForeArm 5.499628 0.000000 15.309409
LeftHand -24.321457 -0.000000 -12.198392
LeftHandThumb1 -26.253704 0.000000 33.147579
RightShoulder -18.956769 11.207678 -29.494271
RightArm -8.514393 -0.349114 57.158474
RightForeArm -26.592610 -0.000000 16.590281
RightHand -10.375655 -0.000000 4.351836
RightHandThumb1 -24.326973 -0.000000 -32.862282
LeftUpLeg -11.980963 2.402705 -0.394156
LeftLeg 3.232669 -0.000000 -0.000000
LeftFoot -11.928695 3.629666 -12.581675
LeftToeBase 9.196560 -0.000000 -0.000000
RightUpLeg -16.899170 -5.567736 -0.747432
RightLeg 11.746385 -0.000000 -0.000000
RightFoot -6.513119 -5.947115 5.558136
RightToeBase -3.158684 -0.000000 0.000000
